<svg width="1000" height="500" viewBox="0 0 1000 500" fill="none" xmlns="http://www.w3.org/2000/svg">
<g clip-path="url(#clip0_1359_706)">
<path fill-rule="evenodd" clip-rule="evenodd" d="M290.3 60.4687C257.05 56.2812 228.85 62.4375 212.5 83.9687V388.531C235.875 371.937 265.475 369.687 292.825 373.156C322.325 376.844 352.05 387.531 375 398.469V88.375C352.875 76.8125 321.15 64.3437 290.3 60.4687ZM107.175 29.375C139.675 25.3125 175.375 29.25 200 55.7187C224.625 29.25 260.325 25.2812 292.825 29.375C330.675 34.1562 368.875 50.375 392.675 63.9062C394.859 65.1477 396.711 67.1485 398.009 69.6698C399.308 72.191 399.999 75.1262 400 78.125V421.875C399.999 424.489 399.474 427.062 398.472 429.356C397.47 431.651 396.023 433.595 394.265 435.01C392.506 436.425 390.491 437.265 388.405 437.455C386.319 437.644 384.229 437.176 382.325 436.094C360.3 423.594 324.75 408.562 290.3 404.219C255.1 399.781 225.575 406.937 209.75 431.625C208.579 433.45 207.095 434.923 205.407 435.935C203.719 436.947 201.872 437.472 200 437.472C198.128 437.472 196.28 436.947 194.593 435.935C192.905 434.923 191.421 433.45 190.25 431.625C174.425 406.937 144.9 399.781 109.675 404.219C75.25 408.562 39.725 423.594 17.675 436.094C15.7712 437.176 13.6806 437.644 11.5946 437.455C9.50861 437.265 7.494 436.425 5.73527 435.01C3.97654 433.595 2.52993 431.651 1.52793 429.356C0.525929 427.062 0.00057905 424.489 0 421.875V78.125C0.000664286 75.1262 0.691667 72.191 1.99053 69.6698C3.28938 67.1485 5.14123 65.1477 7.325 63.9062C31.125 50.375 69.325 34.1562 107.175 29.375ZM106.219 176.23C105.698 179.486 105.438 182.546 105.438 185.41C105.438 187.689 105.861 189.837 106.707 191.855C107.553 193.809 108.725 195.566 110.223 197.129C111.785 198.626 113.576 199.831 115.594 200.742C117.677 201.589 119.891 202.012 122.234 202.012C124.448 202.012 126.564 201.589 128.582 200.742C130.6 199.831 132.358 198.626 133.855 197.129C135.418 195.566 136.622 193.809 137.469 191.855C138.38 189.837 138.836 187.689 138.836 185.41C138.836 183.327 138.478 181.374 137.762 179.551C137.046 177.663 136.069 176.003 134.832 174.57C133.595 173.073 132.13 171.836 130.438 170.859C128.745 169.818 126.922 169.134 124.969 168.809C125.49 166.921 126.206 165.033 127.117 163.145C128.029 161.257 129.396 159.271 131.219 157.187L120.574 149.766C117.84 151.849 115.496 154.355 113.543 157.285C111.655 160.15 110.092 163.21 108.855 166.465C107.684 169.655 106.805 172.91 106.219 176.23ZM66.1797 176.23C65.6589 179.486 65.3984 182.546 65.3984 185.41C65.3984 187.689 65.8216 189.837 66.668 191.855C67.5794 193.809 68.7839 195.566 70.2812 197.129C71.7786 198.626 73.5365 199.831 75.5547 200.742C77.638 201.589 79.8516 202.012 82.1953 202.012C84.4089 202.012 86.5247 201.589 88.543 200.742C90.5612 199.831 92.319 198.626 93.8164 197.129C95.3789 195.566 96.5833 193.809 97.4297 191.855C98.3411 189.837 98.7969 187.689 98.7969 185.41C98.7969 183.327 98.4388 181.374 97.7227 179.551C97.0065 177.663 96.0299 176.003 94.793 174.57C93.6211 173.073 92.1888 171.836 90.4961 170.859C88.8034 169.818 86.9805 169.134 85.0273 168.809C85.5482 166.921 86.2318 165.033 87.0781 163.145C87.9896 161.257 89.3568 159.271 91.1797 157.187L80.6328 149.766C77.8984 151.849 75.5547 154.355 73.6016 157.285C71.6484 160.15 70.0534 163.21 68.8164 166.465C67.6445 169.655 66.7656 172.91 66.1797 176.23ZM96.9414 268.645C97.5273 265.324 97.8203 262.232 97.8203 259.367C97.8203 257.154 97.3646 255.038 96.4531 253.02C95.6068 251.001 94.4349 249.243 92.9375 247.746C91.4401 246.184 89.6497 244.979 87.5664 244.133C85.5482 243.221 83.3672 242.766 81.0234 242.766C78.7448 242.766 76.5964 243.221 74.5781 244.133C72.625 244.979 70.8672 246.184 69.3047 247.746C67.8073 249.243 66.6029 251.001 65.6914 253.02C64.8451 255.038 64.4219 257.154 64.4219 259.367C64.4219 261.451 64.7799 263.436 65.4961 265.324C66.2122 267.212 67.1562 268.905 68.3281 270.402C69.5651 271.835 71.0299 273.039 72.7227 274.016C74.4154 274.992 76.2383 275.643 78.1914 275.969C77.6706 277.857 76.9544 279.745 76.043 281.633C75.1315 283.521 73.7969 285.507 72.0391 287.59L82.5859 295.012C85.3203 292.993 87.6641 290.52 89.6172 287.59C91.5703 284.66 93.1328 281.6 94.3047 278.41C95.5417 275.155 96.4206 271.9 96.9414 268.645ZM136.883 268.645C137.469 265.324 137.762 262.232 137.762 259.367C137.762 257.154 137.339 255.038 136.492 253.02C135.646 251.001 134.441 249.243 132.879 247.746C131.382 246.184 129.591 244.979 127.508 244.133C125.49 243.221 123.309 242.766 120.965 242.766C118.686 242.766 116.538 243.221 114.52 244.133C112.566 244.979 110.809 246.184 109.246 247.746C107.749 249.243 106.544 251.001 105.633 253.02C104.786 255.038 104.363 257.154 104.363 259.367C104.363 261.451 104.721 263.436 105.438 265.324C106.154 267.212 107.13 268.905 108.367 270.402C109.604 271.835 111.069 273.039 112.762 274.016C114.454 274.992 116.277 275.643 118.23 275.969C117.71 277.857 116.993 279.745 116.082 281.633C115.171 283.521 113.803 285.507 111.98 287.59L122.625 295.012C125.359 292.993 127.671 290.52 129.559 287.59C131.512 284.66 133.074 281.6 134.246 278.41C135.483 275.155 136.362 271.9 136.883 268.645Z" fill="white"/>
<path d="M319.579 175.173C328.357 183.961 333.85 195.497 335.141 207.851C336.432 220.204 333.442 232.626 326.671 243.039C327.853 244.024 328.838 245.108 330.217 246.093C332.187 247.669 334.846 249.639 338.195 251.904C341.544 254.268 343.711 255.746 344.696 256.534C348.833 259.587 351.887 262.148 353.955 264.217C357.107 267.369 359.865 270.619 362.229 274.067C364.692 277.514 366.563 280.863 368.041 284.311C369.42 287.758 370.109 291.009 369.814 294.161C369.617 297.313 368.435 299.972 366.268 302.139C364.101 304.306 361.441 305.488 358.289 305.685C355.236 305.882 351.887 305.291 348.538 303.814C345.09 302.435 341.643 300.465 338.294 298.002C334.846 295.638 331.596 292.88 328.444 289.728C326.375 287.66 323.814 284.606 320.859 280.568C319.874 279.287 318.397 277.12 316.23 274.067C314.063 270.915 312.29 268.452 310.714 266.384C309.138 264.414 307.857 262.936 306.38 261.459C296.156 266.812 284.491 268.763 273.081 267.027C261.672 265.291 251.115 259.958 242.946 251.806C221.867 230.628 221.867 196.252 242.946 175.173C247.976 170.137 253.949 166.142 260.523 163.417C267.098 160.691 274.145 159.288 281.262 159.288C288.38 159.288 295.427 160.691 302.002 163.417C308.576 166.142 314.549 170.137 319.579 175.173V175.173ZM305.69 237.819C312.125 231.337 315.737 222.574 315.737 213.44C315.737 204.307 312.125 195.543 305.69 189.061C302.492 185.854 298.693 183.309 294.509 181.573C290.326 179.836 285.841 178.942 281.312 178.942C276.782 178.942 272.297 179.836 268.114 181.573C263.931 183.309 260.131 185.854 256.933 189.061C253.725 192.26 251.181 196.059 249.444 200.242C247.708 204.426 246.814 208.911 246.814 213.44C246.814 217.97 247.708 222.455 249.444 226.638C251.181 230.821 253.725 234.621 256.933 237.819C260.131 241.027 263.931 243.571 268.114 245.308C272.297 247.044 276.782 247.938 281.312 247.938C285.841 247.938 290.326 247.044 294.509 245.308C298.693 243.571 302.492 241.027 305.69 237.819V237.819Z" fill="white"/>
<path d="M532.729 152.823H505.668L491.391 131.407C490.616 131.518 489.869 131.573 489.149 131.573C488.485 131.573 487.821 131.573 487.157 131.573C481.513 131.573 476.062 130.826 470.805 129.332C465.603 127.893 460.705 125.846 456.112 123.189C451.575 120.478 447.424 117.241 443.661 113.478C439.898 109.715 436.661 105.564 433.949 101.026C431.293 96.4333 429.218 91.5358 427.724 86.334C426.285 81.0768 425.565 75.626 425.565 69.9814C425.565 64.3369 426.285 58.8861 427.724 53.6289C429.218 48.3717 431.293 43.4743 433.949 38.9365C436.661 34.3988 439.898 30.2484 443.661 26.4854C447.424 22.7223 451.575 19.5127 456.112 16.8564C460.705 14.2002 465.603 12.1527 470.805 10.7139C476.062 9.21973 481.513 8.47266 487.157 8.47266C492.802 8.47266 498.253 9.21973 503.51 10.7139C508.767 12.1527 513.664 14.2002 518.202 16.8564C522.74 19.5127 526.89 22.7223 530.653 26.4854C534.416 30.2484 537.626 34.3988 540.282 38.9365C542.938 43.4743 544.986 48.3717 546.425 53.6289C547.919 58.8861 548.666 64.3369 548.666 69.9814C548.666 75.8473 547.836 81.5472 546.176 87.0811C544.571 92.6149 542.274 97.7891 539.286 102.604C536.298 107.363 532.673 111.679 528.412 115.553C524.206 119.426 519.503 122.664 514.301 125.265L532.729 152.823ZM525.009 69.9814C525.009 64.7796 524.013 59.8822 522.021 55.2891C520.028 50.6406 517.317 46.6286 513.886 43.2529C510.51 39.8219 506.498 37.1104 501.85 35.1182C497.257 33.126 492.359 32.1299 487.157 32.1299C481.9 32.1299 476.975 33.126 472.382 35.1182C467.789 37.1104 463.777 39.8219 460.346 43.2529C456.915 46.6286 454.203 50.6406 452.211 55.2891C450.219 59.8822 449.223 64.7796 449.223 69.9814C449.223 75.1833 450.219 80.0807 452.211 84.6738C454.203 89.2116 456.915 93.196 460.346 96.627C463.777 100.058 467.789 102.77 472.382 104.762C476.975 106.754 481.9 107.75 487.157 107.75C492.359 107.75 497.257 106.754 501.85 104.762C506.498 102.77 510.51 100.058 513.886 96.627C517.317 93.196 520.028 89.2116 522.021 84.6738C524.013 80.0807 525.009 75.1833 525.009 69.9814ZM647.01 83.7607C647.01 90.4014 645.821 96.5993 643.441 102.354C641.061 108.054 637.824 113.007 633.729 117.213C629.634 121.363 624.82 124.656 619.286 127.091C613.807 129.47 607.914 130.66 601.605 130.66C595.352 130.66 589.458 129.47 583.924 127.091C578.446 124.656 573.631 121.363 569.481 117.213C565.386 113.007 562.149 108.054 559.769 102.354C557.39 96.5993 556.2 90.4014 556.2 83.7607C556.2 77.0094 557.39 70.7562 559.769 65.001C562.149 59.2458 565.386 54.293 569.481 50.1426C573.631 45.9368 578.446 42.6442 583.924 40.2646C589.458 37.8851 595.352 36.6953 601.605 36.6953C607.914 36.6953 613.807 37.8298 619.286 40.0986C624.82 42.3122 629.634 45.4941 633.729 49.6445C637.824 53.7396 641.061 58.6924 643.441 64.5029C645.821 70.2581 647.01 76.6774 647.01 83.7607ZM624.183 83.7607C624.183 80.1084 623.574 76.8158 622.357 73.8828C621.195 70.8945 619.59 68.349 617.543 66.2461C615.495 64.0879 613.088 62.4554 610.321 61.3486C607.609 60.1865 604.704 59.6055 601.605 59.6055C598.506 59.6055 595.573 60.1865 592.806 61.3486C590.095 62.4554 587.715 64.0879 585.668 66.2461C583.675 68.349 582.098 70.8945 580.936 73.8828C579.774 76.8158 579.193 80.1084 579.193 83.7607C579.193 87.1917 579.774 90.3737 580.936 93.3066C582.098 96.2396 583.675 98.7852 585.668 100.943C587.715 103.102 590.095 104.817 592.806 106.09C595.573 107.307 598.506 107.916 601.605 107.916C604.704 107.916 607.609 107.335 610.321 106.173C613.088 105.011 615.495 103.378 617.543 101.275C619.59 99.1725 621.195 96.627 622.357 93.6387C623.574 90.6504 624.183 87.3577 624.183 83.7607ZM724.022 118.624C722.196 120.284 720.231 121.861 718.128 123.355C716.081 124.794 713.922 126.067 711.654 127.174C709.385 128.225 707.033 129.055 704.598 129.664C702.218 130.328 699.783 130.66 697.293 130.66C691.815 130.66 686.668 129.692 681.854 127.755C677.039 125.818 672.806 123.079 669.154 119.537C665.557 115.94 662.707 111.596 660.604 106.505C658.556 101.358 657.532 95.6032 657.532 89.2393V40.0986H680.111V89.2393C680.111 92.2275 680.553 94.9115 681.439 97.291C682.379 99.6152 683.625 101.58 685.174 103.185C686.724 104.789 688.522 106.007 690.57 106.837C692.672 107.667 694.914 108.082 697.293 108.082C699.617 108.082 701.803 107.556 703.851 106.505C705.954 105.398 707.78 103.959 709.329 102.188C710.879 100.418 712.096 98.4255 712.982 96.2119C713.867 93.943 714.31 91.6188 714.31 89.2393V40.0986H736.971V129H731.492L724.022 118.624ZM798.045 129C792.566 129 787.42 127.976 782.605 125.929C777.791 123.826 773.557 120.976 769.905 117.379C766.308 113.727 763.458 109.493 761.355 104.679C759.308 99.8643 758.284 94.7178 758.284 89.2393V62.8428H747.244V40.2646H758.284V4.7373H780.862V40.2646H815.227V62.8428H780.862V89.2393C780.862 91.6188 781.305 93.86 782.19 95.9629C783.076 98.0104 784.293 99.8089 785.843 101.358C787.392 102.908 789.218 104.153 791.321 105.094C793.424 105.979 795.665 106.422 798.045 106.422H815.227V129H798.045ZM862.522 107.252C863.407 107.529 864.293 107.722 865.178 107.833C866.064 107.888 866.949 107.916 867.834 107.916C870.048 107.916 872.178 107.612 874.226 107.003C876.274 106.394 878.183 105.536 879.954 104.43C881.78 103.268 883.385 101.884 884.768 100.279C886.207 98.6191 887.369 96.793 888.254 94.8008L904.856 111.485C902.753 114.474 900.318 117.158 897.551 119.537C894.84 121.917 891.879 123.937 888.669 125.597C885.515 127.257 882.167 128.502 878.625 129.332C875.139 130.217 871.542 130.66 867.834 130.66C861.581 130.66 855.688 129.498 850.154 127.174C844.675 124.85 839.861 121.612 835.71 117.462C831.615 113.312 828.378 108.386 825.998 102.687C823.619 96.9313 822.429 90.6227 822.429 83.7607C822.429 76.7327 823.619 70.3135 825.998 64.5029C828.378 58.6924 831.615 53.7396 835.71 49.6445C839.861 45.5495 844.675 42.3675 850.154 40.0986C855.688 37.8298 861.581 36.6953 867.834 36.6953C871.542 36.6953 875.167 37.138 878.708 38.0234C882.25 38.9089 885.598 40.1816 888.752 41.8418C891.962 43.502 894.95 45.5495 897.717 47.9844C900.484 50.3639 902.919 53.0479 905.022 56.0361L862.522 107.252ZM874.143 60.5186C873.092 60.1312 872.04 59.8822 870.989 59.7715C869.993 59.6608 868.941 59.6055 867.834 59.6055C864.735 59.6055 861.802 60.1865 859.036 61.3486C856.324 62.4554 853.944 64.0602 851.897 66.1631C849.905 68.266 848.328 70.8115 847.165 73.7998C846.003 76.7327 845.422 80.0531 845.422 83.7607C845.422 84.5908 845.45 85.5316 845.505 86.583C845.616 87.6344 845.754 88.7135 845.92 89.8203C846.142 90.8717 846.391 91.8955 846.667 92.8916C846.944 93.8877 847.304 94.7731 847.746 95.5479L874.143 60.5186ZM964.436 129H912.639V106.422H964.436C965.985 106.422 967.313 105.868 968.42 104.762C969.527 103.655 970.08 102.327 970.08 100.777C970.08 99.1725 969.527 98.1211 968.42 97.623C967.313 97.125 965.985 96.876 964.436 96.876H940.861C936.932 96.876 933.252 96.1289 929.821 94.6348C926.39 93.1406 923.402 91.1208 920.856 88.5752C918.311 85.9743 916.291 82.9583 914.797 79.5273C913.358 76.0964 912.639 72.4163 912.639 68.4873C912.639 64.5583 913.358 60.8783 914.797 57.4473C916.291 54.0163 918.311 51.028 920.856 48.4824C923.402 45.9368 926.39 43.9447 929.821 42.5059C933.252 41.0117 936.932 40.2646 940.861 40.2646H986.765V62.8428H940.861C939.312 62.8428 937.984 63.3962 936.877 64.5029C935.77 65.6097 935.217 66.9378 935.217 68.4873C935.217 70.0921 935.77 71.4756 936.877 72.6377C937.984 73.7445 939.312 74.2979 940.861 74.2979H964.436C968.309 74.2979 971.962 74.9619 975.393 76.29C978.824 77.5628 981.812 79.3613 984.357 81.6855C986.903 84.0098 988.923 86.8044 990.417 90.0693C991.911 93.3343 992.658 96.9036 992.658 100.777C992.658 104.706 991.911 108.386 990.417 111.817C988.923 115.193 986.903 118.181 984.357 120.782C981.812 123.328 978.824 125.348 975.393 126.842C971.962 128.281 968.309 129 964.436 129ZM532.729 324.823H505.668L491.391 303.407C490.616 303.518 489.869 303.573 489.149 303.573C488.485 303.573 487.821 303.573 487.157 303.573C481.513 303.573 476.062 302.826 470.805 301.332C465.603 299.893 460.705 297.846 456.112 295.189C451.575 292.478 447.424 289.241 443.661 285.478C439.898 281.715 436.661 277.564 433.949 273.026C431.293 268.433 429.218 263.536 427.724 258.334C426.285 253.077 425.565 247.626 425.565 241.981C425.565 236.337 426.285 230.886 427.724 225.629C429.218 220.372 431.293 215.474 433.949 210.937C436.661 206.399 439.898 202.248 443.661 198.485C447.424 194.722 451.575 191.513 456.112 188.856C460.705 186.2 465.603 184.153 470.805 182.714C476.062 181.22 481.513 180.473 487.157 180.473C492.802 180.473 498.253 181.22 503.51 182.714C508.767 184.153 513.664 186.2 518.202 188.856C522.74 191.513 526.89 194.722 530.653 198.485C534.416 202.248 537.626 206.399 540.282 210.937C542.938 215.474 544.986 220.372 546.425 225.629C547.919 230.886 548.666 236.337 548.666 241.981C548.666 247.847 547.836 253.547 546.176 259.081C544.571 264.615 542.274 269.789 539.286 274.604C536.298 279.363 532.673 283.679 528.412 287.553C524.206 291.426 519.503 294.664 514.301 297.265L532.729 324.823ZM525.009 241.981C525.009 236.78 524.013 231.882 522.021 227.289C520.028 222.641 517.317 218.629 513.886 215.253C510.51 211.822 506.498 209.11 501.85 207.118C497.257 205.126 492.359 204.13 487.157 204.13C481.9 204.13 476.975 205.126 472.382 207.118C467.789 209.11 463.777 211.822 460.346 215.253C456.915 218.629 454.203 222.641 452.211 227.289C450.219 231.882 449.223 236.78 449.223 241.981C449.223 247.183 450.219 252.081 452.211 256.674C454.203 261.212 456.915 265.196 460.346 268.627C463.777 272.058 467.789 274.77 472.382 276.762C476.975 278.754 481.9 279.75 487.157 279.75C492.359 279.75 497.257 278.754 501.85 276.762C506.498 274.77 510.51 272.058 513.886 268.627C517.317 265.196 520.028 261.212 522.021 256.674C524.013 252.081 525.009 247.183 525.009 241.981ZM647.674 290.624C645.848 292.284 643.884 293.861 641.781 295.355C639.733 296.794 637.575 298.067 635.306 299.174C633.037 300.225 630.685 301.055 628.251 301.664C625.871 302.328 623.436 302.66 620.946 302.66C615.467 302.66 610.321 301.692 605.506 299.755C600.692 297.818 596.459 295.079 592.806 291.537C589.209 287.94 586.359 283.596 584.256 278.505C582.209 273.358 581.185 267.603 581.185 261.239V212.099H603.763V261.239C603.763 264.228 604.206 266.911 605.091 269.291C606.032 271.615 607.277 273.58 608.827 275.185C610.376 276.789 612.175 278.007 614.222 278.837C616.325 279.667 618.566 280.082 620.946 280.082C623.27 280.082 625.456 279.556 627.504 278.505C629.606 277.398 631.433 275.959 632.982 274.188C634.532 272.418 635.749 270.425 636.634 268.212C637.52 265.943 637.962 263.619 637.962 261.239V212.099H660.624V301H655.145L647.674 290.624ZM733.734 279.252C734.619 279.529 735.504 279.722 736.39 279.833C737.275 279.888 738.161 279.916 739.046 279.916C741.26 279.916 743.39 279.612 745.438 279.003C747.485 278.394 749.394 277.536 751.165 276.43C752.991 275.268 754.596 273.884 755.98 272.279C757.418 270.619 758.581 268.793 759.466 266.801L776.068 283.485C773.965 286.474 771.53 289.158 768.763 291.537C766.051 293.917 763.091 295.937 759.881 297.597C756.727 299.257 753.379 300.502 749.837 301.332C746.351 302.217 742.754 302.66 739.046 302.66C732.793 302.66 726.899 301.498 721.365 299.174C715.887 296.85 711.072 293.612 706.922 289.462C702.827 285.312 699.59 280.386 697.21 274.687C694.831 268.931 693.641 262.623 693.641 255.761C693.641 248.733 694.831 242.313 697.21 236.503C699.59 230.692 702.827 225.74 706.922 221.645C711.072 217.549 715.887 214.368 721.365 212.099C726.899 209.83 732.793 208.695 739.046 208.695C742.754 208.695 746.378 209.138 749.92 210.023C753.462 210.909 756.81 212.182 759.964 213.842C763.174 215.502 766.162 217.549 768.929 219.984C771.696 222.364 774.131 225.048 776.234 228.036L733.734 279.252ZM745.355 232.519C744.303 232.131 743.252 231.882 742.2 231.771C741.204 231.661 740.153 231.605 739.046 231.605C735.947 231.605 733.014 232.187 730.247 233.349C727.536 234.455 725.156 236.06 723.109 238.163C721.116 240.266 719.539 242.812 718.377 245.8C717.215 248.733 716.634 252.053 716.634 255.761C716.634 256.591 716.662 257.532 716.717 258.583C716.828 259.634 716.966 260.714 717.132 261.82C717.353 262.872 717.602 263.896 717.879 264.892C718.156 265.888 718.515 266.773 718.958 267.548L745.355 232.519ZM830.75 301H808.089V212.099H813.567L821.038 222.641C824.69 219.32 828.841 216.775 833.489 215.004C838.138 213.178 842.952 212.265 847.932 212.265H867.937V234.843H847.932C845.553 234.843 843.312 235.285 841.209 236.171C839.106 237.056 837.28 238.274 835.73 239.823C834.181 241.373 832.963 243.199 832.078 245.302C831.193 247.405 830.75 249.646 830.75 252.025V301ZM919.631 334.867V312.04L932.248 312.206C934.462 312.206 936.593 311.846 938.64 311.127C940.688 310.408 942.569 309.411 944.285 308.139C946.055 306.866 947.605 305.344 948.933 303.573C950.261 301.858 951.34 299.976 952.17 297.929C949.68 298.98 947.135 300.032 944.534 301.083C941.988 302.134 939.415 302.66 936.814 302.66C931.335 302.66 926.189 301.692 921.374 299.755C916.56 297.818 912.327 295.079 908.674 291.537C905.077 287.94 902.227 283.596 900.124 278.505C898.077 273.358 897.053 267.603 897.053 261.239V212.099H919.631V261.239C919.631 264.394 920.074 267.16 920.959 269.54C921.9 271.864 923.145 273.829 924.695 275.434C926.244 276.983 928.043 278.145 930.09 278.92C932.193 279.695 934.434 280.082 936.814 280.082C939.138 280.082 941.324 279.556 943.371 278.505C945.474 277.398 947.301 275.959 948.85 274.188C950.399 272.418 951.617 270.425 952.502 268.212C953.388 265.943 953.83 263.619 953.83 261.239V212.099H976.658V289.794C976.602 296.047 975.385 301.913 973.005 307.392C970.626 312.87 967.361 317.657 963.21 321.752C959.115 325.847 954.329 329.084 948.85 331.464C943.371 333.843 937.506 335.033 931.252 335.033L919.631 334.867ZM527.25 437.307C527.25 442.232 526.309 446.853 524.428 451.169C522.546 455.485 519.973 459.276 516.708 462.541C513.498 465.751 509.735 468.296 505.419 470.178C501.103 472.059 496.482 473 491.557 473H432.04V353.967H491.557C496.482 353.967 501.103 354.908 505.419 356.789C509.735 358.671 513.498 361.244 516.708 364.509C519.973 367.718 522.546 371.481 524.428 375.798C526.309 380.114 527.25 384.735 527.25 389.66C527.25 391.874 526.946 394.143 526.337 396.467C525.728 398.791 524.87 401.032 523.764 403.19C522.657 405.349 521.329 407.313 519.779 409.084C518.23 410.855 516.514 412.321 514.633 413.483C516.57 414.535 518.313 415.974 519.862 417.8C521.412 419.571 522.74 421.535 523.847 423.693C524.953 425.852 525.784 428.12 526.337 430.5C526.946 432.824 527.25 435.093 527.25 437.307ZM455.863 449.177H491.557C493.217 449.177 494.766 448.872 496.205 448.264C497.644 447.655 498.889 446.825 499.94 445.773C501.047 444.667 501.905 443.394 502.514 441.955C503.122 440.516 503.427 438.967 503.427 437.307C503.427 435.646 503.122 434.097 502.514 432.658C501.905 431.219 501.047 429.974 499.94 428.923C498.889 427.816 497.644 426.958 496.205 426.35C494.766 425.741 493.217 425.437 491.557 425.437H455.863V449.177ZM455.863 401.613H491.557C493.217 401.613 494.766 401.309 496.205 400.7C497.644 400.091 498.889 399.261 499.94 398.21C501.047 397.103 501.905 395.83 502.514 394.392C503.122 392.897 503.427 391.32 503.427 389.66C503.427 388 503.122 386.451 502.514 385.012C501.905 383.573 501.047 382.328 499.94 381.276C498.889 380.17 497.644 379.312 496.205 378.703C494.766 378.094 493.217 377.79 491.557 377.79H455.863V401.613ZM685.719 427.761C685.719 434.401 684.529 440.599 682.149 446.354C679.77 452.054 676.532 457.007 672.437 461.213C668.342 465.363 663.528 468.656 657.994 471.091C652.515 473.47 646.622 474.66 640.313 474.66C634.06 474.66 628.166 473.47 622.633 471.091C617.154 468.656 612.34 465.363 608.189 461.213C604.094 457.007 600.857 452.054 598.477 446.354C596.098 440.599 594.908 434.401 594.908 427.761C594.908 421.009 596.098 414.756 598.477 409.001C600.857 403.246 604.094 398.293 608.189 394.143C612.34 389.937 617.154 386.644 622.633 384.265C628.166 381.885 634.06 380.695 640.313 380.695C646.622 380.695 652.515 381.83 657.994 384.099C663.528 386.312 668.342 389.494 672.437 393.645C676.532 397.74 679.77 402.692 682.149 408.503C684.529 414.258 685.719 420.677 685.719 427.761ZM662.891 427.761C662.891 424.108 662.283 420.816 661.065 417.883C659.903 414.895 658.298 412.349 656.251 410.246C654.203 408.088 651.796 406.455 649.029 405.349C646.318 404.187 643.412 403.605 640.313 403.605C637.214 403.605 634.281 404.187 631.514 405.349C628.803 406.455 626.423 408.088 624.376 410.246C622.384 412.349 620.806 414.895 619.644 417.883C618.482 420.816 617.901 424.108 617.901 427.761C617.901 431.192 618.482 434.374 619.644 437.307C620.806 440.24 622.384 442.785 624.376 444.943C626.423 447.102 628.803 448.817 631.514 450.09C634.281 451.307 637.214 451.916 640.313 451.916C643.412 451.916 646.318 451.335 649.029 450.173C651.796 449.011 654.203 447.378 656.251 445.275C658.298 443.173 659.903 440.627 661.065 437.639C662.283 434.65 662.891 431.358 662.891 427.761ZM841.116 427.761C841.116 434.401 839.926 440.599 837.546 446.354C835.167 452.054 831.93 457.007 827.835 461.213C823.74 465.363 818.925 468.656 813.391 471.091C807.913 473.47 802.019 474.66 795.711 474.66C789.457 474.66 783.564 473.47 778.03 471.091C772.551 468.656 767.737 465.363 763.587 461.213C759.491 457.007 756.254 452.054 753.875 446.354C751.495 440.599 750.305 434.401 750.305 427.761C750.305 421.009 751.495 414.756 753.875 409.001C756.254 403.246 759.491 398.293 763.587 394.143C767.737 389.937 772.551 386.644 778.03 384.265C783.564 381.885 789.457 380.695 795.711 380.695C802.019 380.695 807.913 381.83 813.391 384.099C818.925 386.312 823.74 389.494 827.835 393.645C831.93 397.74 835.167 402.692 837.546 408.503C839.926 414.258 841.116 420.677 841.116 427.761ZM818.289 427.761C818.289 424.108 817.68 420.816 816.462 417.883C815.3 414.895 813.696 412.349 811.648 410.246C809.601 408.088 807.193 406.455 804.426 405.349C801.715 404.187 798.809 403.605 795.711 403.605C792.612 403.605 789.679 404.187 786.912 405.349C784.2 406.455 781.821 408.088 779.773 410.246C777.781 412.349 776.204 414.895 775.042 417.883C773.879 420.816 773.298 424.108 773.298 427.761C773.298 431.192 773.879 434.374 775.042 437.307C776.204 440.24 777.781 442.785 779.773 444.943C781.821 447.102 784.2 448.817 786.912 450.09C789.679 451.307 792.612 451.916 795.711 451.916C798.809 451.916 801.715 451.335 804.426 450.173C807.193 449.011 809.601 447.378 811.648 445.275C813.696 443.173 815.3 440.627 816.462 437.639C817.68 434.65 818.289 431.358 818.289 427.761ZM933.427 473H910.6V348.737H933.427V427.097L967.211 384.265H993.276L963.808 421.286L993.276 473H967.211L949.199 440.71L933.427 461.628V473Z" fill="white"/>
</g>
<defs>
<clipPath id="clip0_1359_706">
<rect width="1000" height="500" fill="white"/>
</clipPath>
</defs>
</svg>
